<svg xmlns="http://www.w3.org/2000/svg" width="1440" height="590" viewBox="0 0 1440 590"><rect width="100%" height="100%" fill="#f1f2f4" /><text x="32" y="45" font-family="Arial, sans-serif" font-size="28" fill="#303946" font-weight="600">02 &amp; 03 / Two alternatives</text><text x="32" y="76" font-family="Arial, sans-serif" font-size="16" fill="#626b77" font-weight="400">A more visual postcard, or a catalog the player chooses to open.</text><text x="32" y="118" font-family="Arial, sans-serif" font-size="18" fill="#303946" font-weight="600">02 / Corner postcard · desktop</text><svg width="660" height="412.5" viewBox="0 0 1280 800" x="32" y="132"><defs><linearGradient id="body" x1="0" y1="0" x2="1" y2="1"><stop stop-color="#d8d8d8" /><stop offset="1" stop-color="#c0c0c0" /></linearGradient></defs><rect width="100%" height="100%" fill="url(#body)" /><rect x="223" y="178.5" width="100" height="146" rx="8" fill="rgb(255, 255, 255)" stroke="rgb(38, 38, 38)" stroke-width="0" /><svg viewBox="0 0 60 60" aria-hidden="true" fill="rgb(201, 32, 32)" stroke="rgb(201, 32, 32)" stroke-width="4px" x="255" y="233.5" width="36" height="36"><path d="M30 5 55 53H5Z" fill="rgb(201, 32, 32)" stroke="rgb(201, 32, 32)" stroke-width="4px" /></svg><rect x="339" y="178.5" width="100" height="146" rx="8" fill="rgb(255, 255, 255)" stroke="rgb(38, 38, 38)" stroke-width="0" /><svg viewBox="0 0 60 60" aria-hidden="true" fill="none" stroke="rgb(23, 179, 33)" stroke-width="4px" x="371" y="213" width="36" height="36"><circle cx="30" cy="30" r="21" fill="none" stroke="rgb(23, 179, 33)" stroke-width="4px" /></svg><svg viewBox="0 0 60 60" aria-hidden="true" fill="none" stroke="rgb(23, 179, 33)" stroke-width="4px" x="371" y="254" width="36" height="36"><circle cx="30" cy="30" r="21" fill="none" stroke="rgb(23, 179, 33)" stroke-width="4px" /></svg><rect x="455" y="178.5" width="100" height="146" rx="8" fill="rgb(255, 255, 255)" stroke="rgb(38, 38, 38)" stroke-width="0" /><svg viewBox="0 0 60 60" aria-hidden="true" fill="rgb(138, 0, 166)" stroke="rgb(138, 0, 166)" stroke-width="4px" x="487" y="192.5" width="36" height="36"><rect x="8" y="8" width="44" height="44" fill="rgb(138, 0, 166)" stroke="rgb(138, 0, 166)" stroke-width="4px" /></svg><svg viewBox="0 0 60 60" aria-hidden="true" fill="rgb(138, 0, 166)" stroke="rgb(138, 0, 166)" stroke-width="4px" x="487" y="233.5" width="36" height="36"><rect x="8" y="8" width="44" height="44" fill="rgb(138, 0, 166)" stroke="rgb(138, 0, 166)" stroke-width="4px" /></svg><svg viewBox="0 0 60 60" aria-hidden="true" fill="rgb(138, 0, 166)" stroke="rgb(138, 0, 166)" stroke-width="4px" x="487" y="274.5" width="36" height="36"><rect x="8" y="8" width="44" height="44" fill="rgb(138, 0, 166)" stroke="rgb(138, 0, 166)" stroke-width="4px" /></svg><text xml:space="preserve" x="270.375" y="405.3" fill="rgb(38, 38, 38)" font-family="Roboto, Arial, sans-serif" font-size="40px" font-weight="300" font-style="normal" letter-spacing="0">All </text><text xml:space="preserve" x="323.09375" y="405.3" fill="rgb(38, 38, 38)" font-family="Roboto, Arial, sans-serif" font-size="40px" font-weight="300" font-style="italic" letter-spacing="0">or</text><text xml:space="preserve" x="359" y="405.3" fill="rgb(38, 38, 38)" font-family="Roboto, Arial, sans-serif" font-size="40px" font-weight="300" font-style="normal" letter-spacing="0"> Nothing</text><rect x="741" y="185" width="300" height="44" rx="5" fill="none" stroke="rgba(25, 118, 210, 0.5)" stroke-width="1" /><svg viewBox="0 0 24 24" aria-hidden="true" fill="none" stroke="rgb(21, 101, 192)" stroke-width="1.7px" x="820.75" y="196" width="22" height="22"><path d="m8 5 11 7-11 7Z" fill="none" stroke="rgb(21, 101, 192)" stroke-width="1.7px" /></svg><text xml:space="preserve" x="852.75" y="211.8" fill="rgb(21, 101, 192)" font-family="Roboto, Arial, sans-serif" font-size="15px" font-weight="500" font-style="normal" letter-spacing="0">SINGLE PLAYER</text><rect x="741" y="245" width="300" height="44" rx="5" fill="none" stroke="rgba(25, 118, 210, 0.5)" stroke-width="1" /><svg viewBox="0 0 24 24" aria-hidden="true" fill="none" stroke="rgb(21, 101, 192)" stroke-width="1.7px" x="801.9375" y="256" width="22" height="22"><circle cx="8" cy="8" r="3" fill="none" stroke="rgb(21, 101, 192)" stroke-width="1.7px" /><circle cx="17" cy="9" r="2.5" fill="none" stroke="rgb(21, 101, 192)" stroke-width="1.7px" /><path d="M2 20v-3a6 6 0 0 1 12 0v3m2 0v-3a7 7 0 0 0-1-4 5 5 0 0 1 7 4v3" fill="none" stroke="rgb(21, 101, 192)" stroke-width="1.7px" /></svg><text xml:space="preserve" x="833.9375" y="271.8" fill="rgb(21, 101, 192)" font-family="Roboto, Arial, sans-serif" font-size="15px" font-weight="500" font-style="normal" letter-spacing="0">LOCAL MULTIPLAYER</text><rect x="741" y="305" width="300" height="44" rx="5" fill="none" stroke="rgba(25, 118, 210, 0.5)" stroke-width="1" /><svg viewBox="0 0 24 24" aria-hidden="true" fill="none" stroke="rgb(21, 101, 192)" stroke-width="1.7px" x="826.671875" y="316" width="22" height="22"><path d="M9 7a3 3 0 0 1 6 1c0 3-3 2-3 5m0 4v1" fill="none" stroke="rgb(21, 101, 192)" stroke-width="1.7px" /></svg><text xml:space="preserve" x="858.671875" y="331.8" fill="rgb(21, 101, 192)" font-family="Roboto, Arial, sans-serif" font-size="15px" font-weight="500" font-style="normal" letter-spacing="0">HOW TO PLAY</text><rect x="741" y="365" width="300" height="44" rx="5" fill="none" stroke="rgba(25, 118, 210, 0.5)" stroke-width="1" /><svg viewBox="0 0 24 24" aria-hidden="true" fill="none" stroke="rgb(21, 101, 192)" stroke-width="1.7px" x="851.75" y="376" width="22" height="22"><circle cx="5" cy="12" r="1" fill="none" stroke="rgb(21, 101, 192)" stroke-width="1.7px" /><circle cx="12" cy="12" r="1" fill="none" stroke="rgb(21, 101, 192)" stroke-width="1.7px" /><circle cx="19" cy="12" r="1" fill="none" stroke="rgb(21, 101, 192)" stroke-width="1.7px" /></svg><text xml:space="preserve" x="883.75" y="391.8" fill="rgb(21, 101, 192)" font-family="Roboto, Arial, sans-serif" font-size="15px" font-weight="500" font-style="normal" letter-spacing="0">EXTRA</text><rect x="906" y="460.1875" width="310" height="241.8125" rx="10" fill="rgba(247, 248, 250, 0.92)" stroke="rgba(255, 255, 255, 0.533)" stroke-width="1" /><rect x="923" y="477.1875" width="276" height="72.625" rx="7" fill="rgb(214, 217, 227)" stroke="rgb(38, 38, 38)" stroke-width="0" /><rect x="1007.998046875" y="493.78839111328125" width="36.86572265625" height="50.37359619140625" rx="3" fill="rgb(255, 255, 255)" stroke="rgb(38, 38, 38)" stroke-width="0" /><svg viewBox="0 0 60 60" aria-hidden="true" fill="rgb(201, 32, 32)" stroke="rgb(201, 32, 32)" stroke-width="4px" x="1014.9896850585938" y="507.5339660644531" width="22.88250732421875" height="22.882476806640625"><path d="M30 5 55 53H5Z" fill="rgb(201, 32, 32)" stroke="rgb(201, 32, 32)" stroke-width="4px" /></svg><rect x="1042.567138671875" y="488.3132019042969" width="36.86572265625" height="50.373626708984375" rx="3" fill="rgb(255, 255, 255)" stroke="rgb(38, 38, 38)" stroke-width="0" /><svg viewBox="0 0 60 60" aria-hidden="true" fill="none" stroke="rgb(23, 179, 33)" stroke-width="4px" x="1049.5587158203125" y="502.05877685546875" width="22.8824462890625" height="22.8824462890625"><circle cx="30" cy="30" r="21" fill="none" stroke="rgb(23, 179, 33)" stroke-width="4px" /></svg><rect x="1077.13623046875" y="482.8379821777344" width="36.86572265625" height="50.373626708984375" rx="3" fill="rgb(255, 255, 255)" stroke="rgb(38, 38, 38)" stroke-width="0" /><svg viewBox="0 0 60 60" aria-hidden="true" fill="rgb(138, 0, 166)" stroke="rgb(138, 0, 166)" stroke-width="4px" x="1084.1279296875" y="496.58355712890625" width="22.88232421875" height="22.8824462890625"><rect x="8" y="8" width="44" height="44" fill="rgb(138, 0, 166)" stroke="rgb(138, 0, 166)" stroke-width="4px" /></svg><text xml:space="preserve" x="923" y="575.0125" fill="rgb(96, 101, 107)" font-family="Roboto, Arial, sans-serif" font-size="10px" font-weight="700" font-style="normal" letter-spacing="1.4px">THIS GAME · STEAM EDITION</text><text xml:space="preserve" x="923" y="601.2925" fill="rgb(38, 38, 38)" font-family="Roboto, Arial, sans-serif" font-size="19px" font-weight="500" font-style="normal" letter-spacing="0">Also available on</text><text xml:space="preserve" x="923" y="624.2925" fill="rgb(38, 38, 38)" font-family="Roboto, Arial, sans-serif" font-size="19px" font-weight="500" font-style="normal" letter-spacing="0">Steam</text><text xml:space="preserve" x="923" y="647.7725" fill="rgb(97, 102, 107)" font-family="Roboto, Arial, sans-serif" font-size="13px" font-weight="400" font-style="normal" letter-spacing="0">Enjoy All or Nothing on Steam.</text><text xml:space="preserve" x="923" y="677.38" fill="rgb(21, 101, 192)" font-family="Roboto, Arial, sans-serif" font-size="14px" font-weight="500" font-style="normal" letter-spacing="0">View on Steam </text><text xml:space="preserve" x="1020.0625" y="677.38" fill="rgb(21, 101, 192)" font-family="Roboto, Arial, sans-serif" font-size="14px" font-weight="500" font-style="normal" letter-spacing="0">↗</text><text xml:space="preserve" x="1179.125" y="581.5525" fill="rgb(104, 112, 120)" font-family="Roboto, Arial, sans-serif" font-size="22px" font-weight="400" font-style="normal" letter-spacing="0">×</text><text xml:space="preserve" x="1118.859375" y="671.5" fill="rgb(21, 101, 192)" font-family="Roboto, Arial, sans-serif" font-size="25px" font-weight="400" font-style="normal" letter-spacing="0">‹</text><text xml:space="preserve" x="1141.625" y="666.62" fill="rgb(96, 101, 107)" font-family="Roboto, Arial, sans-serif" font-size="11px" font-weight="400" font-style="normal" letter-spacing="0">1 / 3</text><text xml:space="preserve" x="1179.234375" y="671.5" fill="rgb(21, 101, 192)" font-family="Roboto, Arial, sans-serif" font-size="25px" font-weight="400" font-style="normal" letter-spacing="0">›</text><rect x="51.1875" y="736" width="44" height="44" rx="50" fill="rgba(255, 255, 255, 0.52)" stroke="rgb(21, 101, 192)" stroke-width="0" /><text xml:space="preserve" x="64.5625" y="765.66" fill="rgb(21, 101, 192)" font-family="Roboto, Arial, sans-serif" font-size="23px" font-weight="400" font-style="normal" letter-spacing="0">♫</text><text xml:space="preserve" x="600.53125" y="761.7" fill="rgb(98, 103, 109)" font-family="Roboto, Arial, sans-serif" font-size="10px" font-weight="400" font-style="normal" letter-spacing="1.2px">DESIGN MOCK</text><rect x="1184.8125" y="736" width="44" height="44" rx="50" fill="rgba(255, 255, 255, 0.52)" stroke="rgb(21, 101, 192)" stroke-width="0" /><text xml:space="preserve" x="1199.90625" y="765.66" fill="rgb(21, 101, 192)" font-family="Roboto, Arial, sans-serif" font-size="23px" font-weight="400" font-style="normal" letter-spacing="0">⛶</text></svg><text x="748" y="118" font-family="Arial, sans-serif" font-size="18" fill="#303946" font-weight="600">03 / Optional game shelf · Steam TV</text><svg width="660" height="371.25" viewBox="0 0 1920 1080" x="748" y="132"><defs><linearGradient id="body" x1="0" y1="0" x2="1" y2="1"><stop stop-color="#d8d8d8" /><stop offset="1" stop-color="#c0c0c0" /></linearGradient></defs><rect width="100%" height="100%" fill="url(#body)" /><text xml:space="preserve" x="115.1875" y="77.92" fill="rgb(21, 101, 192)" font-family="Roboto, Arial, sans-serif" font-size="26px" font-weight="400" font-style="normal" letter-spacing="0">← Back to game</text><text xml:space="preserve" x="1502.984375" y="74.38" fill="rgb(98, 103, 109)" font-family="Roboto, Arial, sans-serif" font-size="14px" font-weight="400" font-style="normal" letter-spacing="1.2px">DESIGN MOCK · PLACEHOLDER CATALOG</text><text xml:space="preserve" x="792.171875" y="164.8" fill="rgb(96, 101, 107)" font-family="Roboto, Arial, sans-serif" font-size="15px" font-weight="700" font-style="normal" letter-spacing="1.4px">FROM THE CREATOR OF ALL OR NOTHING</text><text xml:space="preserve" x="780.765625" y="239.88" fill="rgb(38, 38, 38)" font-family="Roboto, Arial, sans-serif" font-size="64px" font-weight="300" font-style="normal" letter-spacing="0">More to play.</text><text xml:space="preserve" x="738.5" y="293.76" fill="rgb(89, 95, 102)" font-family="Roboto, Arial, sans-serif" font-size="28px" font-weight="400" font-style="normal" letter-spacing="0">A few other games you might enjoy.</text><rect x="250" y="351" width="690" height="560.546875" rx="12" fill="rgb(248, 249, 251)" stroke="rgb(38, 38, 38)" stroke-width="0" /><rect x="245" y="346" width="700" height="570.546875" rx="17" fill="none" stroke="rgb(21, 101, 192)" stroke-width="3" /><rect x="250" y="351" width="690" height="255.546875" rx="0" fill="rgb(76, 58, 116)" stroke="rgb(38, 38, 38)" stroke-width="0" /><svg viewBox="0 0 200 120" aria-hidden="true" fill="rgb(0, 0, 0)" stroke="none" stroke-width="1px" x="250" y="351" width="690" height="255.546875"><g fill="rgb(250, 248, 255)" stroke="rgb(200, 185, 239)" stroke-width="2px"><rect x="52" y="24" width="42" height="42" rx="8" fill="rgb(250, 248, 255)" stroke="rgb(200, 185, 239)" stroke-width="2px" /><rect x="103" y="24" width="42" height="42" rx="8" fill="rgb(250, 248, 255)" stroke="rgb(200, 185, 239)" stroke-width="2px" /><rect x="52" y="75" width="42" height="30" rx="8" fill="rgb(250, 248, 255)" stroke="rgb(200, 185, 239)" stroke-width="2px" /></g><path d="m115 85 9-9 9 9-9 9Z" fill="rgb(234, 203, 121)" stroke="none" stroke-width="1px" /><circle cx="73" cy="45" r="9" fill="rgb(137, 114, 190)" stroke="none" stroke-width="1px" /><path d="m115 52 10-17 10 17Z" fill="rgb(215, 157, 186)" stroke="none" stroke-width="1px" /></svg><text xml:space="preserve" x="284" y="655.346875" fill="rgb(96, 101, 107)" font-family="Roboto, Arial, sans-serif" font-size="15px" font-weight="700" font-style="normal" letter-spacing="1.4px">MORE GAMES · PLACEHOLDER</text><text xml:space="preserve" x="284" y="700.826875" fill="rgb(38, 38, 38)" font-family="Roboto, Arial, sans-serif" font-size="34px" font-weight="500" font-style="normal" letter-spacing="0">Your next puzzle game</text><text xml:space="preserve" x="284" y="747.466875" fill="rgb(95, 102, 110)" font-family="Roboto, Arial, sans-serif" font-size="26px" font-weight="400" font-style="normal" letter-spacing="0">A little more to puzzle over.</text><rect x="284" y="817.546875" width="226.703125" height="60" rx="5" fill="rgb(21, 101, 192)" stroke="rgb(21, 101, 192)" stroke-width="1" /><text xml:space="preserve" x="301" y="856.466875" fill="rgb(255, 255, 255)" font-family="Roboto, Arial, sans-serif" font-size="26px" font-weight="400" font-style="normal" letter-spacing="0">View in Steam ↗</text><rect x="980" y="351" width="690" height="560.546875" rx="12" fill="rgb(248, 249, 251)" stroke="rgb(38, 38, 38)" stroke-width="0" /><rect x="980" y="351" width="690" height="255.546875" rx="0" fill="rgb(49, 92, 75)" stroke="rgb(38, 38, 38)" stroke-width="0" /><svg viewBox="0 0 200 120" aria-hidden="true" fill="rgb(0, 0, 0)" stroke="none" stroke-width="1px" x="980" y="351" width="690" height="255.546875"><path d="M0 108 42 80 73 101 122 64 159 91 200 67V120H0" fill="rgb(141, 186, 157)" stroke="none" stroke-width="1px" /><circle cx="153" cy="31" r="16" fill="rgb(237, 206, 133)" stroke="none" stroke-width="1px" /><rect x="64" y="56" width="24" height="24" rx="7" fill="rgb(251, 250, 240)" stroke="none" stroke-width="1px" /><path d="m106 38 6-9 6 9-6 9Z" fill="rgb(255, 255, 255)" stroke="none" stroke-width="1px" /></svg><text xml:space="preserve" x="1014" y="655.346875" fill="rgb(96, 101, 107)" font-family="Roboto, Arial, sans-serif" font-size="15px" font-weight="700" font-style="normal" letter-spacing="1.4px">MORE GAMES · PLACEHOLDER</text><text xml:space="preserve" x="1014" y="700.826875" fill="rgb(38, 38, 38)" font-family="Roboto, Arial, sans-serif" font-size="34px" font-weight="500" font-style="normal" letter-spacing="0">Your next arcade game</text><text xml:space="preserve" x="1014" y="747.466875" fill="rgb(95, 102, 110)" font-family="Roboto, Arial, sans-serif" font-size="26px" font-weight="400" font-style="normal" letter-spacing="0">Something different to play.</text><rect x="1014" y="817.546875" width="226.703125" height="60" rx="5" fill="rgb(21, 101, 192)" stroke="rgb(21, 101, 192)" stroke-width="1" /><text xml:space="preserve" x="1031" y="856.466875" fill="rgb(255, 255, 255)" font-family="Roboto, Arial, sans-serif" font-size="26px" font-weight="400" font-style="normal" letter-spacing="0">View in Steam ↗</text><rect x="798.453125" y="941.546875" width="40" height="40" rx="50" fill="rgb(60, 114, 67)" stroke="rgb(255, 255, 255)" stroke-width="0" /><text xml:space="preserve" x="809.71875" y="970.466875" fill="rgb(255, 255, 255)" font-family="Roboto, Arial, sans-serif" font-size="26px" font-weight="700" font-style="normal" letter-spacing="0">A</text><text xml:space="preserve" x="850.453125" y="970.466875" fill="rgb(96, 101, 107)" font-family="Roboto, Arial, sans-serif" font-size="26px" font-weight="400" font-style="normal" letter-spacing="0">Open store</text><rect x="1012.390625" y="941.546875" width="40" height="40" rx="50" fill="rgb(148, 68, 68)" stroke="rgb(255, 255, 255)" stroke-width="0" /><text xml:space="preserve" x="1024.09375" y="970.466875" fill="rgb(255, 255, 255)" font-family="Roboto, Arial, sans-serif" font-size="26px" font-weight="700" font-style="normal" letter-spacing="0">B</text><text xml:space="preserve" x="1064.390625" y="970.466875" fill="rgb(96, 101, 107)" font-family="Roboto, Arial, sans-serif" font-size="26px" font-weight="400" font-style="normal" letter-spacing="0">Back</text></svg><text x="32" y="566" font-family="Arial, sans-serif" font-size="14" fill="#626b77" font-weight="400">Static vector exports of the mocks. Exact rendering and interactions are available in the HTML preview.</text></svg>