<svg xmlns="http://www.w3.org/2000/svg" width="1280" height="800" viewBox="0 0 1280 800"><defs><linearGradient id="body" x1="0" y1="0" x2="1" y2="1"><stop stop-color="#d8d8d8"/><stop offset="1" stop-color="#c0c0c0"/></linearGradient></defs><rect width="100%" height="100%" fill="url(#body)"/><rect x="223" y="177.40625" width="100" height="146" rx="8" fill="rgb(255, 255, 255)" stroke="rgb(38, 38, 38)" stroke-width="0"/><svg viewBox="0 0 60 60" aria-hidden="true" fill="rgb(201, 32, 32)" stroke="rgb(201, 32, 32)" stroke-width="4px" x="255" y="232.40625" width="36" height="36"><path d="M30 5 55 53H5Z" fill="rgb(201, 32, 32)" stroke="rgb(201, 32, 32)" stroke-width="4px"></path></svg><rect x="339" y="177.40625" width="100" height="146" rx="8" fill="rgb(255, 255, 255)" stroke="rgb(38, 38, 38)" stroke-width="0"/><svg viewBox="0 0 60 60" aria-hidden="true" fill="none" stroke="rgb(23, 179, 33)" stroke-width="4px" x="371" y="211.90625" width="36" height="36"><circle cx="30" cy="30" r="21" fill="none" stroke="rgb(23, 179, 33)" stroke-width="4px"></circle></svg><svg viewBox="0 0 60 60" aria-hidden="true" fill="none" stroke="rgb(23, 179, 33)" stroke-width="4px" x="371" y="252.90625" width="36" height="36"><circle cx="30" cy="30" r="21" fill="none" stroke="rgb(23, 179, 33)" stroke-width="4px"></circle></svg><rect x="455" y="177.40625" width="100" height="146" rx="8" fill="rgb(255, 255, 255)" stroke="rgb(38, 38, 38)" stroke-width="0"/><svg viewBox="0 0 60 60" aria-hidden="true" fill="rgb(138, 0, 166)" stroke="rgb(138, 0, 166)" stroke-width="4px" x="487" y="191.40625" width="36" height="36"><rect x="8" y="8" width="44" height="44" fill="rgb(138, 0, 166)" stroke="rgb(138, 0, 166)" stroke-width="4px"></rect></svg><svg viewBox="0 0 60 60" aria-hidden="true" fill="rgb(138, 0, 166)" stroke="rgb(138, 0, 166)" stroke-width="4px" x="487" y="232.40625" width="36" height="36"><rect x="8" y="8" width="44" height="44" fill="rgb(138, 0, 166)" stroke="rgb(138, 0, 166)" stroke-width="4px"></rect></svg><svg viewBox="0 0 60 60" aria-hidden="true" fill="rgb(138, 0, 166)" stroke="rgb(138, 0, 166)" stroke-width="4px" x="487" y="273.40625" width="36" height="36"><rect x="8" y="8" width="44" height="44" fill="rgb(138, 0, 166)" stroke="rgb(138, 0, 166)" stroke-width="4px"></rect></svg><text xml:space="preserve" x="270.375" y="404.20625" fill="rgb(38, 38, 38)" font-family="Roboto, Arial, sans-serif" font-size="40px" font-weight="300" font-style="normal" letter-spacing="0">All </text><text xml:space="preserve" x="323.09375" y="404.20625" fill="rgb(38, 38, 38)" font-family="Roboto, Arial, sans-serif" font-size="40px" font-weight="300" font-style="italic" letter-spacing="0">or</text><text xml:space="preserve" x="359" y="404.20625" fill="rgb(38, 38, 38)" font-family="Roboto, Arial, sans-serif" font-size="40px" font-weight="300" font-style="normal" letter-spacing="0"> Nothing</text><rect x="741" y="183.90625" width="300" height="44" rx="5" fill="none" stroke="rgba(25, 118, 210, 0.5)" stroke-width="1"/><svg viewBox="0 0 24 24" aria-hidden="true" fill="none" stroke="rgb(21, 101, 192)" stroke-width="1.7px" x="820.75" y="194.90625" width="22" height="22"><path d="m8 5 11 7-11 7Z" fill="none" stroke="rgb(21, 101, 192)" stroke-width="1.7px"></path></svg><text xml:space="preserve" x="852.75" y="210.70625" fill="rgb(21, 101, 192)" font-family="Roboto, Arial, sans-serif" font-size="15px" font-weight="500" font-style="normal" letter-spacing="0">SINGLE PLAYER</text><rect x="741" y="243.90625" width="300" height="44" rx="5" fill="none" stroke="rgba(25, 118, 210, 0.5)" stroke-width="1"/><svg viewBox="0 0 24 24" aria-hidden="true" fill="none" stroke="rgb(21, 101, 192)" stroke-width="1.7px" x="801.9375" y="254.90625" width="22" height="22"><circle cx="8" cy="8" r="3" fill="none" stroke="rgb(21, 101, 192)" stroke-width="1.7px"></circle><circle cx="17" cy="9" r="2.5" fill="none" stroke="rgb(21, 101, 192)" stroke-width="1.7px"></circle><path d="M2 20v-3a6 6 0 0 1 12 0v3m2 0v-3a7 7 0 0 0-1-4 5 5 0 0 1 7 4v3" fill="none" stroke="rgb(21, 101, 192)" stroke-width="1.7px"></path></svg><text xml:space="preserve" x="833.9375" y="270.70625" fill="rgb(21, 101, 192)" font-family="Roboto, Arial, sans-serif" font-size="15px" font-weight="500" font-style="normal" letter-spacing="0">LOCAL MULTIPLAYER</text><rect x="741" y="303.90625" width="300" height="44" rx="5" fill="none" stroke="rgba(25, 118, 210, 0.5)" stroke-width="1"/><svg viewBox="0 0 24 24" aria-hidden="true" fill="none" stroke="rgb(21, 101, 192)" stroke-width="1.7px" x="826.671875" y="314.90625" width="22" height="22"><path d="M9 7a3 3 0 0 1 6 1c0 3-3 2-3 5m0 4v1" fill="none" stroke="rgb(21, 101, 192)" stroke-width="1.7px"></path></svg><text xml:space="preserve" x="858.671875" y="330.70625" fill="rgb(21, 101, 192)" font-family="Roboto, Arial, sans-serif" font-size="15px" font-weight="500" font-style="normal" letter-spacing="0">HOW TO PLAY</text><rect x="741" y="363.90625" width="300" height="44" rx="5" fill="none" stroke="rgba(25, 118, 210, 0.5)" stroke-width="1"/><svg viewBox="0 0 24 24" aria-hidden="true" fill="none" stroke="rgb(21, 101, 192)" stroke-width="1.7px" x="851.75" y="374.90625" width="22" height="22"><circle cx="5" cy="12" r="1" fill="none" stroke="rgb(21, 101, 192)" stroke-width="1.7px"></circle><circle cx="12" cy="12" r="1" fill="none" stroke="rgb(21, 101, 192)" stroke-width="1.7px"></circle><circle cx="19" cy="12" r="1" fill="none" stroke="rgb(21, 101, 192)" stroke-width="1.7px"></circle></svg><text xml:space="preserve" x="883.75" y="390.70625" fill="rgb(21, 101, 192)" font-family="Roboto, Arial, sans-serif" font-size="15px" font-weight="500" font-style="normal" letter-spacing="0">EXTRA</text><rect x="315" y="450.40625" width="650" height="136.1875" rx="10" fill="rgba(247, 248, 250, 0.92)" stroke="rgba(255, 255, 255, 0.533)" stroke-width="1"/><rect x="332" y="483.5" width="105" height="70" rx="7" fill="rgb(214, 217, 227)" stroke="rgb(38, 38, 38)" stroke-width="0"/><rect x="342.0984191894531" y="502.730712890625" width="29.49261474609375" height="40.29888916015625" rx="3" fill="rgb(255, 255, 255)" stroke="rgb(38, 38, 38)" stroke-width="0"/><svg viewBox="0 0 60 60" aria-hidden="true" fill="rgb(201, 32, 32)" stroke="rgb(201, 32, 32)" stroke-width="4px" x="347.6917419433594" y="513.7271728515625" width="18.30596923828125" height="18.30596923828125"><path d="M30 5 55 53H5Z" fill="rgb(201, 32, 32)" stroke="rgb(201, 32, 32)" stroke-width="4px"></path></svg><rect x="369.7536926269531" y="498.3505554199219" width="29.49261474609375" height="40.298919677734375" rx="3" fill="rgb(255, 255, 255)" stroke="rgb(38, 38, 38)" stroke-width="0"/><svg viewBox="0 0 60 60" aria-hidden="true" fill="none" stroke="rgb(23, 179, 33)" stroke-width="4px" x="375.3470153808594" y="509.3470153808594" width="18.30596923828125" height="18.305938720703125"><circle cx="30" cy="30" r="21" fill="none" stroke="rgb(23, 179, 33)" stroke-width="4px"></circle></svg><rect x="397.4089660644531" y="493.97039794921875" width="29.49261474609375" height="40.29888916015625" rx="3" fill="rgb(255, 255, 255)" stroke="rgb(38, 38, 38)" stroke-width="0"/><svg viewBox="0 0 60 60" aria-hidden="true" fill="rgb(138, 0, 166)" stroke="rgb(138, 0, 166)" stroke-width="4px" x="403.0022888183594" y="504.96685791015625" width="18.30596923828125" height="18.30596923828125"><rect x="8" y="8" width="44" height="44" fill="rgb(138, 0, 166)" stroke="rgb(138, 0, 166)" stroke-width="4px"></rect></svg><text xml:space="preserve" x="455" y="482.60625" fill="rgb(96, 101, 107)" font-family="Roboto, Arial, sans-serif" font-size="10px" font-weight="700" font-style="normal" letter-spacing="1.4px">THIS GAME · STEAM EDITION</text><text xml:space="preserve" x="455" y="508.88625" fill="rgb(38, 38, 38)" font-family="Roboto, Arial, sans-serif" font-size="19px" font-weight="500" font-style="normal" letter-spacing="0">Also available on Steam</text><text xml:space="preserve" x="455" y="532.36625" fill="rgb(97, 102, 107)" font-family="Roboto, Arial, sans-serif" font-size="13px" font-weight="400" font-style="normal" letter-spacing="0">Enjoy All or Nothing on Steam.</text><text xml:space="preserve" x="455" y="561.97375" fill="rgb(21, 101, 192)" font-family="Roboto, Arial, sans-serif" font-size="14px" font-weight="500" font-style="normal" letter-spacing="0">View on Steam </text><text xml:space="preserve" x="552.0625" y="561.97375" fill="rgb(21, 101, 192)" font-family="Roboto, Arial, sans-serif" font-size="14px" font-weight="500" font-style="normal" letter-spacing="0">↗</text><text xml:space="preserve" x="928.125" y="489.14625" fill="rgb(104, 112, 120)" font-family="Roboto, Arial, sans-serif" font-size="22px" font-weight="400" font-style="normal" letter-spacing="0">×</text><text xml:space="preserve" x="867.859375" y="556.09375" fill="rgb(21, 101, 192)" font-family="Roboto, Arial, sans-serif" font-size="25px" font-weight="400" font-style="normal" letter-spacing="0">‹</text><text xml:space="preserve" x="890.625" y="551.21375" fill="rgb(96, 101, 107)" font-family="Roboto, Arial, sans-serif" font-size="11px" font-weight="400" font-style="normal" letter-spacing="0">1 / 3</text><text xml:space="preserve" x="928.234375" y="556.09375" fill="rgb(21, 101, 192)" font-family="Roboto, Arial, sans-serif" font-size="25px" font-weight="400" font-style="normal" letter-spacing="0">›</text><rect x="51.1875" y="736" width="44" height="44" rx="50" fill="rgba(255, 255, 255, 0.52)" stroke="rgb(21, 101, 192)" stroke-width="0"/><text xml:space="preserve" x="64.5625" y="765.66" fill="rgb(21, 101, 192)" font-family="Roboto, Arial, sans-serif" font-size="23px" font-weight="400" font-style="normal" letter-spacing="0">♫</text><text xml:space="preserve" x="600.53125" y="761.7" fill="rgb(98, 103, 109)" font-family="Roboto, Arial, sans-serif" font-size="10px" font-weight="400" font-style="normal" letter-spacing="1.2px">DESIGN MOCK</text><rect x="1184.8125" y="736" width="44" height="44" rx="50" fill="rgba(255, 255, 255, 0.52)" stroke="rgb(21, 101, 192)" stroke-width="0"/><text xml:space="preserve" x="1199.90625" y="765.66" fill="rgb(21, 101, 192)" font-family="Roboto, Arial, sans-serif" font-size="23px" font-weight="400" font-style="normal" letter-spacing="0">⛶</text></svg>
